{
.appVersion = "3151";
.formatVersion = 3;
customParameters = (
{
name = vendorID;
value = ADBO;
},
{
name = panose;
value = (
2,
11,
2,
0,
0,
0,
0,
0,
0,
0
);
},
{
name = unicodeRanges;
value = (
0,
1,
7,
29,
36,
42,
43,
44,
45,
48,
49,
50,
51,
52,
54,
55,
57,
59,
61,
65,
66,
68
);
},
{
name = codePageRanges;
value = (
"1252",
"1250",
"1251",
"1258",
"932",
"936",
"bit 29",
"bit 30"
);
},
{
name = fsType;
value = (
);
}
);
date = "2021-04-29 08:43:11 +0000";
familyName = "Yaku Han JP";
featurePrefixes = (
{
automatic = 1;
code = "languagesystem DFLT dflt;
";
name = Languagesystems;
}
);
features = (
{
automatic = 1;
code = "feature vert;
feature vrt2;
";
tag = aalt;
},
{
code = "sub comma-han by comma-han.vert;
sub period-han by period-han.vert;
sub colon.full by colon.full.vert;
sub blacklenticularbracketleft by blacklenticularbracketleft.vert;
sub blacklenticularbracketright by blacklenticularbracketright.vert;
sub cornerbracketleft by cornerbracketleft.vert;
sub cornerbracketright by cornerbracketright.vert;
sub dblanglebracketleft by dblanglebracketleft.vert;
sub dblanglebracketright by dblanglebracketright.vert;
sub tortoiseshellbracketleft by tortoiseshellbracketleft.vert;
sub tortoiseshellbracketright by tortoiseshellbracketright.vert;
sub whitecornerbracketleft by whitecornerbracketleft.vert;
sub whitecornerbracketright by whitecornerbracketright.vert;
sub whitelenticularbracketleft by whitelenticularbracketleft.vert;
sub whitelenticularbracketright by whitelenticularbracketright.vert;
sub braceleft.full by braceleft.full.vert;
sub braceright.full by braceright.full.vert;
sub bracketleft.full by bracketleft.full.vert;
sub bracketright.full by bracketright.full.vert;
sub parenleft.full by parenleft.full.vert;
sub parenright.full by parenright.full.vert;
sub angleLeft by anglebracketleft.vert;
sub angleRight by anglebracketright.vert;";
tag = vert;
},
{
automatic = 1;
code = "sub comma-han by comma-han.vert;
sub period-han by period-han.vert;

glyphs = (
{
glyphname = .notdef;
lastChange = "2023-08-27 12:31:07 +0000";
layers = (
{
layerId = m01;
shapes = (
{
closed = 1;
nodes = (
(900,880,l),
(100,880,l),
(100,-120,l),
(900,-120,l)
);
},
{
closed = 1;
nodes = (
(818,830,l),
(500,421,l),
(182,830,l)
);
},
{
closed = 1;
nodes = (
(850,-29,l),
(532,380,l),
(850,789,l)
);
},
{
closed = 1;
nodes = (
(818,-70,l),
(182,-70,l),
(500,339,l)
);
},
{
closed = 1;
nodes = (
(150,-29,l),
(150,789,l),
(468,380,l)
);
}
);
vertWidth = 1000;
width = 1000;
}
);
note = ".notdef";
},
{
glyphname = "comma-han";
lastChange = "2023-08-27 12:31:07 +0000";
layers = (
{
layerId = m01;
shapes = (
{
closed = 1;
nodes = (
(289,26,o),
(210,107,o),
(132,181,o),
(95,210,q),
(62,179,l),
(97,151,o),
(176,78,o),
(254,-4,o),
(287,-46,q),
(324,-15,l)
);
}
);
vertWidth = 1000;
width = 1000;
}
);
note = uni3001;
unicode = 12289;
},
{
glyphname = "comma-han.vert";
lastChange = "2023-08-27 12:31:07 +0000";
layers = (
{
layerId = m01;
shapes = (
{
closed = 1;
nodes = (
(904,633,o),
(826,712,o),
(749,785,o),
(713,813,q),
(680,783,l),
(733,742,o),
(854,623,o),
(903,562,q),
(939,593,l)
);
}
);
vertWidth = 1000;
width = 1000;
}
);
note = uniFE11;
unicode = 65041;
},
{
glyphname = "period-han";
lastChange = "2023-08-27 12:31:07 +0000";
layers = (
{
layerId = m01;
shapes = (
{
closed = 1;
nodes = (
(89,201,o),
(50,136,o),
(50,96,qs),
(50,56,o),
(89,-10,o),
(155,-49,o),
(195,-49,qs),
(235,-49,o),
(300,-10,o),
(340,56,o),
(340,96,qs),
(340,136,o),
(300,201,o),
(235,241,o),
(195,241,qs),
(155,241,o)
);
},
{
closed = 1;
nodes = (
(115,15,o),
(84,66,o),
(84,96,qs),
(84,126,o),
(115,176,o),
(165,206,o),
(195,206,qs),
(226,206,o),
(276,176,o),
(305,126,o),
(305,96,qs),
(305,50,o),
(241,-15,o),
(195,-15,qs),
(165,-15,o)
);
}
);
vertWidth = 1000;
width = 1000;
}
);
note = uni3002;
unicode = 12290;
},
{
glyphname = "period-han.vert";
lastChange = "2023-08-27 12:31:07 +0000";
layers = (
{
layerId = m01;
shapes = (
{
closed = 1;
nodes = (
(703,769,o),
(664,704,o),
(664,664,qs),
(664,625,o),
(703,560,o),
(768,521,o),
(807,521,qs),
(846,521,o),
(911,560,o),
(950,625,o),
(950,664,qs),
(950,704,o),
(911,769,o),
(846,807,o),
(807,807,qs),
(768,807,o)
);
},
{
closed = 1;
nodes = (
(728,584,o),
(698,634,o),
(698,664,qs),
(698,695,o),
(728,743,o),
(778,773,o),
(807,773,qs),
(837,773,o),
(887,743,o),
(916,695,o),
(916,664,qs),
(916,619,o),
(853,555,o),
(807,555,qs),
(778,555,o)
);
}
);
vertWidth = 1000;
width = 1000;
}
);
note = uniFE12;
unicode = 65042;
},
{
glyphname = hyphenationpoint;
lastChange = "2023-08-27 12:31:07 +0000";
layers = (
{
layerId = m01;
shapes = (
{
closed = 1;
nodes = (
(435,445,o),
(411,405,o),
(411,380,qs),
(411,356,o),
(435,315,o),
(476,291,o),
(500,291,qs),
(525,291,o),
(565,315,o),
(589,356,o),
(589,380,qs),
(589,405,o),
(565,445,o),
(525,469,o),
(500,469,qs),
(476,469,o)
);
}
);
vertWidth = 1000;
width = 1000;
}
);
note = uni2027;
unicode = (8231,12539);
},
{
glyphname = colon.full;
lastChange = "2023-08-27 12:31:07 +0000";
layers = (
{
layerId = m01;
shapes = (
{
closed = 1;
nodes = (
(560,597,o),
(560,626,qs),
(560,655,o),
(523,686,o),
(500,686,qs),
(477,686,o),
(440,655,o),
(440,626,qs),
(440,597,o),
(477,566,o),
(500,566,qs),
(523,566,o)
);
},
{
closed = 1;
nodes = (
(560,97,o),
(560,127,qs),
(560,156,o),
(523,187,o),
(500,187,qs),
(477,187,o),
(440,156,o),
(440,127,qs),
(440,97,o),
(477,67,o),
(500,67,qs),
(523,67,o)
);
}
);
vertWidth = 1000;
width = 1000;
}
);
note = uniFF1A;
unicode = 65306;
},
{
glyphname = exclam.full;
lastChange = "2023-08-27 12:31:07 +0000";
layers = (
{
layerId = m01;
shapes = (
{
closed = 1;
nodes = (
(533,654,l),
(534,748,l),
(466,748,l),
(467,654,l),
(482,229,l),
(518,229,l)
);
},
{
closed = 1;
nodes = (
(545,23,o),
(545,46,qs),
(545,69,o),
(517,96,o),
(500,96,qs),
(483,96,o),
(455,69,o),
(455,46,qs),
(455,23,o),
(483,-1,o),
(500,-1,qs),
(517,-1,o)
);
}
);
vertWidth = 1000;
width = 1000;
}
);
note = uniFF01;
unicode = 65281;
},
{
glyphname = question.full;
lastChange = "2023-08-27 12:31:07 +0000";
layers = (
{
layerId = m01;
shapes = (
{
closed = 1;
nodes = (
(497,270,o),
(521,331,o),
(572,384,o),
(633,433,o),
(689,485,o),
(726,546,o),
(726,585,qs),
(726,636,o),
(675,715,o),
(579,762,o),
(510,762,qs),
(428,762,o),
(313,701,o),
(262,651,q),
(293,621,l),
(342,673,o),
(450,721,o),
(506,721,qs),
(567,721,o),
(642,684,o),
(677,620,o),
(677,582,qs),
(677,551,o),
(641,497,o),
(586,449,o),
(525,399,o),
(475,342,o),
(452,273,o),
(462,229,q),
(505,229,l)
);
},
{
closed = 1;
nodes = (
(531,23,o),
(531,46,qs),
(531,69,o),
(504,96,o),
(486,96,qs),
(469,96,o),
(441,69,o),
(441,46,qs),
(441,23,o),
(469,-1,o),
(486,-1,qs),
(504,-1,o)
);
}
);
vertWidth = 1000;
width = 1000;
}
);
note = uniFF1F;
unicode = 65311;
},
{
glyphname = semicolon.full;
lastChange = "2023-08-27 12:31:07 +0000";
layers = (
{
layerId = m01;
shapes = (
{
closed = 1;
nodes = (
(574,62,o),
(574,145,qs),
(574,190,o),
(539,244,o),
(506,244,qs),
(484,244,o),
(448,217,o),
(448,186,qs),
(448,157,o),
(481,129,o),
(507,129,qs),
(519,129,o),
(545,138,o),
(555,152,q),
(502,217,l),
(529,144,l),
(529,72,o),
(468,-20,o),
(406,-51,q),
(421,-82,l),
(489,-51,o)
);
},
{
closed = 1;
nodes = (
(560,597,o),
(560,626,qs),
(560,655,o),
(523,686,o),
(500,686,qs),
(477,686,o),
(440,655,o),
(440,626,qs),
(440,597,o),
(477,566,o),
(500,566,qs),
(523,566,o)
);
}
);
vertWidth = 1000;
width = 1000;
}
);
note = uniFF1B;
unicode = 65307;
},
{
glyphname = colon.full.vert;
lastChange = "2023-08-27 12:31:07 +0000";
layers = (
{
layerId = m01;
shapes = (
{
closed = 1;
nodes = (
(310,347,o),
(310,376,qs),
(310,406,o),
(273,436,o),
(250,436,qs),
(227,436,o),
(190,406,o),
(190,376,qs),
(190,347,o),
(227,317,o),
(250,317,qs),
(273,317,o)
);
},
{
closed = 1;
nodes = (
(810,347,o),
(810,376,qs),
(810,406,o),
(773,436,o),
(750,436,qs),
(727,436,o),
(690,406,o),
(690,376,qs),
(690,347,o),
(727,317,o),
(750,317,qs),
(773,317,o)
);
}
);
vertWidth = 1000;
width = 1000;
}
);
note = glyph17776;
},
{
glyphname = angleLeft;
lastChange = "2023-08-27 12:31:07 +0000";
layers = (
{
layerId = m01;
shapes = (
{
closed = 1;
nodes = (
(950,823,l),
(915,841,l),
(609,380,l),
(915,-81,l),
(950,-63,l),
(655,380,l)
);
}
);
vertWidth = 1000;
width = 1000;
}
);
note = uni2329;
unicode = (9001,12296);
},
{
glyphname = angleRight;
lastChange = "2023-08-27 12:31:07 +0000";
layers = (
{
layerId = m01;
shapes = (
{
closed = 1;
nodes = (
(391,380,l),
(85,841,l),
(50,823,l),
(345,380,l),
(50,-63,l),
(85,-81,l)
);
}
);
vertWidth = 1000;
width = 1000;
}
);
note = uni3009;
unicode = (9002,12297);
},
{
glyphname = blacklenticularbracketleft;
lastChange = "2023-08-27 12:31:07 +0000";
layers = (
{
layerId = m01;
shapes = (
{
closed = 1;
nodes = (
(671,841,l),
(671,-81,l),
(961,-81,l),
(961,-76,l),
(907,-30,o),
(817,106,o),
(763,280,o),
(763,380,qs),
(763,480,o),
(817,654,o),
(907,791,o),
(961,836,q),
(961,841,l)
);
}
);
vertWidth = 1000;
width = 1000;
}
);
note = uni3010;
unicode = 12304;
},
{
glyphname = blacklenticularbracketright;
lastChange = "2023-08-27 12:31:07 +0000";
layers = (
{
layerId = m01;
shapes = (
{
closed = 1;
nodes = (
(39,841,l),
(39,836,l),
(94,791,o),
(183,654,o),
(237,480,o),
(237,380,qs),
(237,280,o),
(183,106,o),
(94,-30,o),
(39,-76,q),
(39,-81,l),
(329,-81,l),
(329,841,l)
);
}
);
vertWidth = 1000;
width = 1000;
}
);
note = uni3011;
unicode = 12305;
},
{
glyphname = braceleft.full;
lastChange = "2023-08-27 12:31:07 +0000";
layers = (
{
layerId = m01;
shapes = (
{
closed = 1;
nodes = (
(961,-63,l),
(927,-63,ls),
(876,-63,o),
(842,-5,o),
(842,52,qs),
(842,105,o),
(849,204,o),
(849,264,qs),
(849,312,o),
(825,368,o),
(792,378,q),
(792,382,l),
(825,392,o),
(849,449,o),
(849,496,qs),
(849,557,o),
(842,654,o),
(842,708,qs),
(842,766,o),
(876,823,o),
(927,823,qs),
(961,823,l),
(961,854,l),
(924,854,ls),
(864,854,o),
(803,796,o),
(803,713,qs),
(803,673,o),
(807,597,o),
(812,524,o),
(812,484,qs),
(812,463,o),
(797,423,o),
(757,397,o),
(718,397,q),
(718,363,l),
(757,363,o),
(797,337,o),
(812,298,o),
(812,276,qs),
(812,238,o),
(807,164,o),
(803,88,o),
(803,47,qs),
(803,-35,o),
(864,-94,o),
(924,-94,qs),
(961,-94,l)
);
}
);
vertWidth = 1000;
width = 1000;
}
);
note = uniFF5B;
unicode = 65371;
},
{
glyphname = braceright.full;
lastChange = "2023-08-27 12:31:07 +0000";
layers = (
{
layerId = m01;
shapes = (
{
closed = 1;
nodes = (
(39,-63,l),
(73,-63,ls),
(124,-63,o),
(158,-5,o),
(158,52,qs),
(158,105,o),
(151,204,o),
(151,264,qs),
(151,312,o),
(175,368,o),
(208,378,q),
(208,382,l),
(175,392,o),
(151,449,o),
(151,496,qs),
(151,557,o),
(158,654,o),
(158,708,qs),
(158,766,o),
(124,823,o),
(73,823,qs),
(39,823,l),
(39,854,l),
(76,854,ls),
(136,854,o),
(197,796,o),
(197,713,qs),
(197,673,o),
(192,597,o),
(188,524,o),
(188,484,qs),
(188,463,o),
(203,423,o),
(244,397,o),
(282,397,q),
(282,363,l),
(244,363,o),
(203,337,o),
(188,298,o),
(188,276,qs),
(188,238,o),
(192,164,o),
(197,88,o),
(197,47,qs),
(197,-35,o),
(136,-94,o),
(76,-94,qs),
(39,-94,l)
);
}
);
vertWidth = 1000;
width = 1000;
}
);
note = uniFF5D;
unicode = 65373;
},
{
glyphname = cornerbracketleft;
lastChange = "2023-08-27 12:31:07 +0000";
layers = (
{
layerId = m01;
shapes = (
{
closed = 1;
nodes = (
(697,189,l),
(697,803,l),
(961,803,l),
(961,841,l),
(658,841,l),
(658,189,l)
);
}
);
vertWidth = 1000;
width = 1000;
}
);
note = uni300C;
unicode = 12300;
},
{
glyphname = cornerbracketright;
lastChange = "2023-08-27 12:31:07 +0000";
layers = (
{
layerId = m01;
shapes = (
{
closed = 1;
nodes = (
(303,571,l),
(303,-43,l),
(39,-43,l),
(39,-81,l),
(342,-81,l),
(342,571,l)
);
}
);
vertWidth = 1000;
width = 1000;
}
);
note = uni300D;
unicode = 12301;
},
{
glyphname = dblanglebracketleft;
lastChange = "2023-08-27 12:31:07 +0000";
layers = (
{
layerId = m01;
shapes = (
{
closed = 1;
nodes = (
(810,830,l),
(779,841,l),
(538,380,l),
(779,-81,l),
(810,-70,l),
(574,380,l)
);
},
{
closed = 1;
nodes = (
(956,830,l),
(925,841,l),
(684,380,l),
(925,-81,l),
(956,-70,l),
(720,380,l)
);
}
);
vertWidth = 1000;
width = 1000;
}
);
note = uni300A;
unicode = 12298;
},
{
glyphname = dblanglebracketright;
lastChange = "2023-08-27 12:31:07 +0000";
layers = (
{
layerId = m01;
shapes = (
{
closed = 1;
nodes = (
(461,380,l),
(220,841,l),
(189,830,l),
(425,380,l),
(189,-70,l),
(220,-81,l)
);
},
{
closed = 1;
nodes = (
(315,380,l),
(74,841,l),
(43,830,l),
(279,380,l),
(43,-70,l),
(74,-81,l)
);
}
);
vertWidth = 1000;
width = 1000;
}
);
note = uni300B;
unicode = 12299;
},
{
glyphname = tortoiseshellbracketleft;
lastChange = "2023-08-27 12:31:07 +0000";
layers = (
{
layerId = m01;
shapes = (
{
closed = 1;
nodes = (
(951,-62,l),
(767,55,l),
(767,705,l),
(951,822,l),
(930,852,l),
(728,721,l),
(728,39,l),
(930,-92,l)
);
}
);
vertWidth = 1000;
width = 1000;
}
);
note = uni3014;
unicode = 12308;
},
{
glyphname = tortoiseshellbracketright;
lastChange = "2023-08-27 12:31:07 +0000";
layers = (
{
layerId = m01;
shapes = (
{
closed = 1;
nodes = (
(49,-62,l),
(233,55,l),
(233,705,l),
(49,822,l),
(70,852,l),
(272,721,l),
(272,39,l),
(70,-92,l)
);
}
);
vertWidth = 1000;
width = 1000;
}
);
note = uni3015;
unicode = 12309;
},
{
glyphname = whitecornerbracketleft;
lastChange = "2023-08-27 12:31:07 +0000";
layers = (
{
layerId = m01;
shapes = (
{
closed = 1;
nodes = (
(961,841,l),
(599,841,l),
(599,178,l),
(753,178,l),
(753,703,l),
(961,703,l)
);
},
{
closed = 1;
nodes = (
(937,727,l),
(728,727,l),
(728,202,l),
(623,202,l),
(623,817,l),
(937,817,l)
);
}
);
vertWidth = 1000;
width = 1000;
}
);
note = uni300E;
unicode = 12302;
},
{
glyphname = whitecornerbracketright;
lastChange = "2023-08-27 12:31:07 +0000";
layers = (
{
layerId = m01;
shapes = (
{
closed = 1;
nodes = (
(39,-81,l),
(401,-81,l),
(401,582,l),
(247,582,l),
(247,57,l),
(39,57,l)
);
},
{
closed = 1;
nodes = (
(63,33,l),
(272,33,l),
(272,558,l),
(377,558,l),
(377,-57,l),
(63,-57,l)
);
}
);
vertWidth = 1000;
width = 1000;
}
);
note = uni300F;
unicode = 12303;
},
{
glyphname = whitelenticularbracketleft;
lastChange = "2023-08-27 12:31:07 +0000";
layers = (
{
layerId = m01;
shapes = (
{
closed = 1;
nodes = (
(882,-28,o),
(764,96,o),
(698,271,o),
(698,380,qs),
(698,490,o),
(764,664,o),
(882,789,o),
(961,824,q),
(961,841,l),
(618,841,l),
(618,-81,l),
(961,-81,l),
(961,-64,l)
);
},
{
closed = 1;
nodes = (
(641,819,l),
(901,819,l),
(866,797,o),
(787,724,o),
(719,618,o),
(676,473,o),
(676,380,qs),
(676,287,o),
(719,142,o),
(787,36,o),
(866,-37,o),
(901,-59,q),
(641,-59,l)
);
}
);
vertWidth = 1000;
width = 1000;
}
);
note = uni3016;
unicode = 12310;
},
{
glyphname = whitelenticularbracketright;
lastChange = "2023-08-27 12:31:07 +0000";
layers = (
{
layerId = m01;
shapes = (
{
closed = 1;
nodes = (
(382,-81,l),
(382,841,l),
(39,841,l),
(39,824,l),
(118,789,o),
(236,664,o),
(302,490,o),
(302,380,qs),
(302,271,o),
(236,96,o),
(118,-28,o),
(39,-64,q),
(39,-81,l)
);
},
{
closed = 1;
nodes = (
(134,-37,o),
(213,36,o),
(281,142,o),
(324,287,o),
(324,380,qs),
(324,473,o),
(281,618,o),
(213,724,o),
(134,797,o),
(99,819,q),
(359,819,l),
(359,-59,l),
(99,-59,l)
);
}
);
vertWidth = 1000;
width = 1000;
}
);
note = uni3017;
unicode = 12311;
},
{
glyphname = anglebracketleft.vert;
lastChange = "2023-08-27 12:31:07 +0000";
layers = (
{
layerId = m01;
shapes = (
{
closed = 1;
nodes = (
(943,-70,l),
(961,-35,l),
(500,271,l),
(39,-35,l),
(57,-70,l),
(500,225,l)
);
}
);
vertWidth = 1000;
width = 1000;
}
);
note = uniFE3F;
unicode = 65087;
},
{
glyphname = anglebracketright.vert;
lastChange = "2023-08-27 12:31:07 +0000";
layers = (
{
layerId = m01;
shapes = (
{
closed = 1;
nodes = (
(57,830,l),
(39,795,l),
(500,489,l),
(961,795,l),
(943,830,l),
(500,535,l)
);
}
);
vertWidth = 1000;
width = 1000;
}
);
note = uniFE40;
unicode = 65088;
},
{
glyphname = blacklenticularbracketleft.vert;
lastChange = "2023-08-27 12:31:07 +0000";
layers = (
{
layerId = m01;
shapes = (
{
closed = 1;
nodes = (
(961,209,l),
(39,209,l),
(39,-81,l),
(44,-81,l),
(90,-26,o),
(226,63,o),
(400,117,o),
(500,117,qs),
(600,117,o),
(774,63,o),
(911,-26,o),
(956,-81,q),
(961,-81,l)
);
}
);
vertWidth = 1000;
width = 1000;
}
);
note = uniFE3B;
unicode = 65083;
},
{
glyphname = blacklenticularbracketright.vert;
lastChange = "2023-08-27 12:31:07 +0000";
layers = (
{
layerId = m01;
shapes = (
{
closed = 1;
nodes = (
(961,841,l),
(956,841,l),
(911,787,o),
(774,697,o),
(600,643,o),
(500,643,qs),
(400,643,o),
(226,697,o),
(90,787,o),
(44,841,q),
(39,841,l),
(39,551,l),
(961,551,l)
);
}
);
vertWidth = 1000;
width = 1000;
}
);
note = uniFE3C;
unicode = 65084;
},
{
glyphname = bracketleft.full;
lastChange = "2023-08-27 12:31:07 +0000";
layers = (
{
layerId = m01;
shapes = (
{
closed = 1;
nodes = (
(961,-81,l),
(961,-50,l),
(748,-50,l),
(748,810,l),
(961,810,l),
(961,841,l),
(710,841,l),
(710,-81,l)
);
}
);
vertWidth = 1000;
width = 1000;
}
);
note = uniFF3B;
unicode = 65339;
},
{
glyphname = bracketright.full;
lastChange = "2023-08-27 12:31:07 +0000";
layers = (
{
layerId = m01;
shapes = (
{
closed = 1;
nodes = (
(39,-81,l),
(39,-50,l),
(252,-50,l),
(252,810,l),
(39,810,l),
(39,841,l),
(290,841,l),
(290,-81,l)
);
}
);
vertWidth = 1000;
width = 1000;
}
);
note = uniFF3D;
unicode = 65341;
},
{
glyphname = cornerbracketleft.vert;
lastChange = "2023-08-27 12:31:07 +0000";
layers = (
{
layerId = m01;
shapes = (
{
closed = 1;
nodes = (
(258,184,l),
(936,184,l),
(936,-81,l),
(975,-81,l),
(975,222,l),
(258,222,l)
);
}
);
vertWidth = 1000;
width = 1000;
}
);
note = uniFE41;
unicode = 65089;
},
{
glyphname = cornerbracketright.vert;
lastChange = "2023-08-27 12:31:07 +0000";
layers = (
{
layerId = m01;
shapes = (
{
closed = 1;
nodes = (
(742,575,l),
(64,575,l),
(64,840,l),
(25,840,l),
(25,536,l),
(742,536,l)
);
}
);
vertWidth = 1000;
width = 1000;
}
);
note = uniFE42;
unicode = 65090;
},
{
glyphname = dblanglebracketleft.vert;
lastChange = "2023-08-27 12:31:07 +0000";
layers = (
{
layerId = m01;
shapes = (
{
closed = 1;
nodes = (
(950,69,l),
(961,100,l),
(500,341,l),
(39,100,l),
(50,69,l),
(500,305,l)
);
},
{
closed = 1;
nodes = (
(950,-77,l),
(961,-46,l),
(500,195,l),
(39,-46,l),
(50,-77,l),
(500,159,l)
);
}
);
vertWidth = 1000;
width = 1000;
}
);
note = uniFE3D;
unicode = 65085;
},
{
glyphname = dblanglebracketright.vert;
lastChange = "2023-08-27 12:31:07 +0000";
layers = (
{
layerId = m01;
shapes = (
{
closed = 1;
nodes = (
(50,691,l),
(39,660,l),
(500,419,l),
(961,660,l),
(950,691,l),
(500,455,l)
);
},
{
closed = 1;
nodes = (
(50,837,l),
(39,806,l),
(500,565,l),
(961,806,l),
(950,837,l),
(500,601,l)
);
}
);
vertWidth = 1000;
width = 1000;
}
);
note = uniFE3E;
unicode = 65086;
},
{
glyphname = parenleft.full;
lastChange = "2023-08-27 12:31:07 +0000";
layers = (
{
layerId = m01;
shapes = (
{
closed = 1;
nodes = (
(766,125,o),
(856,-25,o),
(921,-92,q),
(953,-71,l),
(890,-6,o),
(804,139,o),
(761,297,o),
(761,380,qs),
(761,464,o),
(804,621,o),
(890,767,o),
(953,831,q),
(921,852,l),
(856,785,o),
(766,635,o),
(720,471,o),
(720,380,qs),
(720,290,o)
);
}
);
vertWidth = 1000;
width = 1000;
}
);
note = uniFF08;
unicode = 65288;
},
{
glyphname = parenright.full;
lastChange = "2023-08-27 12:31:07 +0000";
layers = (
{
layerId = m01;
shapes = (
{
closed = 1;
nodes = (
(234,635,o),
(144,785,o),
(79,852,q),
(47,831,l),
(110,767,o),
(196,621,o),
(239,464,o),
(239,380,qs),
(239,297,o),
(196,139,o),
(110,-6,o),
(47,-71,q),
(79,-92,l),
(144,-25,o),
(234,125,o),
(280,290,o),
(280,380,qs),
(280,471,o)
);
}
);
vertWidth = 1000;
width = 1000;
}
);
note = uniFF09;
unicode = 65289;
},
{
glyphname = tortoiseshellbracketleft.vert;
lastChange = "2023-08-27 12:31:07 +0000";
layers = (
{
layerId = m01;
shapes = (
{
closed = 1;
nodes = (
(58,-71,l),
(175,113,l),
(825,113,l),
(942,-71,l),
(972,-50,l),
(841,152,l),
(159,152,l),
(28,-50,l)
);
}
);
vertWidth = 1000;
width = 1000;
}
);
note = uniFE39;
unicode = 65081;
},
{
glyphname = tortoiseshellbracketright.vert;
lastChange = "2023-08-27 12:31:07 +0000";
layers = (
{
layerId = m01;
shapes = (
{
closed = 1;
nodes = (
(58,831,l),
(175,647,l),
(825,647,l),
(942,831,l),
(972,810,l),
(841,608,l),
(159,608,l),
(28,810,l)
);
}
);
vertWidth = 1000;
width = 1000;
}
);
note = uniFE3A;
unicode = 65082;
},
{
glyphname = whitecornerbracketleft.vert;
lastChange = "2023-08-27 12:31:07 +0000";
layers = (
{
layerId = m01;
shapes = (
{
closed = 1;
nodes = (
(961,-81,l),
(961,265,l),
(298,265,l),
(298,127,l),
(813,127,l),
(813,-81,l)
);
},
{
closed = 1;
nodes = (
(837,-57,l),
(837,151,l),
(322,151,l),
(322,241,l),
(937,241,l),
(937,-57,l)
);
}
);
vertWidth = 1000;
width = 1000;
}
);
note = uniFE43;
unicode = 65091;
},
{
glyphname = whitecornerbracketright.vert;
lastChange = "2023-08-27 12:31:07 +0000";
layers = (
{
layerId = m01;
shapes = (
{
closed = 1;
nodes = (
(39,841,l),
(39,495,l),
(702,495,l),
(702,633,l),
(187,633,l),
(187,841,l)
);
},
{
closed = 1;
nodes = (
(163,817,l),
(163,609,l),
(678,609,l),
(678,519,l),
(63,519,l),
(63,817,l)
);
}
);
vertWidth = 1000;
width = 1000;
}
);
note = uniFE44;
unicode = 65092;
},
{
glyphname = whitelenticularbracketleft.vert;
lastChange = "2023-08-27 12:31:07 +0000";
layers = (
{
layerId = m01;
shapes = (
{
closed = 1;
nodes = (
(92,-2,o),
(216,116,o),
(391,182,o),
(500,182,qs),
(610,182,o),
(784,116,o),
(909,-2,o),
(944,-81,q),
(961,-81,l),
(961,262,l),
(39,262,l),
(39,-81,l),
(56,-81,l)
);
},
{
closed = 1;
nodes = (
(939,239,l),
(939,-21,l),
(917,14,o),
(844,93,o),
(738,161,o),
(593,204,o),
(500,204,qs),
(407,204,o),
(262,161,o),
(156,93,o),
(83,14,o),
(61,-21,q),
(61,239,l)
);
}
);
vertWidth = 1000;
width = 1000;
}
);
note = uniFE17;
unicode = 65047;
},
{
glyphname = whitelenticularbracketright.vert;
lastChange = "2023-08-27 12:31:07 +0000";
layers = (
{
layerId = m01;
shapes = (
{
closed = 1;
nodes = (
(39,498,l),
(961,498,l),
(961,841,l),
(944,841,l),
(909,762,o),
(784,644,o),
(610,578,o),
(500,578,qs),
(391,578,o),
(216,644,o),
(92,762,o),
(56,841,q),
(39,841,l)
);
},
{
closed = 1;
nodes = (
(83,746,o),
(156,667,o),
(262,599,o),
(407,556,o),
(500,556,qs),
(593,556,o),
(738,599,o),
(844,667,o),
(917,746,o),
(939,781,q),
(939,521,l),
(61,521,l),
(61,781,l)
);
}
);
vertWidth = 1000;
width = 1000;
}
);
note = uniFE18;
unicode = 65048;
},
{
glyphname = braceleft.full.vert;
lastChange = "2023-08-27 12:31:07 +0000";
layers = (
{
layerId = m01;
shapes = (
{
closed = 1;
nodes = (
(57,-81,l),
(57,-47,ls),
(57,4,o),
(115,38,o),
(172,38,qs),
(225,38,o),
(324,31,o),
(384,31,qs),
(432,31,o),
(488,55,o),
(498,88,q),
(502,88,l),
(512,55,o),
(569,31,o),
(616,31,qs),
(677,31,o),
(774,38,o),
(828,38,qs),
(886,38,o),
(943,4,o),
(943,-47,qs),
(943,-81,l),
(974,-81,l),
(974,-44,ls),
(974,16,o),
(916,77,o),
(833,77,qs),
(793,77,o),
(717,72,o),
(644,68,o),
(604,68,qs),
(583,68,o),
(543,83,o),
(517,124,o),
(517,162,q),
(483,162,l),
(483,124,o),
(457,83,o),
(418,68,o),
(396,68,qs),
(358,68,o),
(284,72,o),
(208,77,o),
(167,77,qs),
(85,77,o),
(26,16,o),
(26,-44,qs),
(26,-81,l)
);
}
);
vertWidth = 1000;
width = 1000;
}
);
note = uniFE37;
unicode = 65079;
},
{
glyphname = braceright.full.vert;
lastChange = "2023-08-27 12:31:07 +0000";
layers = (
{
layerId = m01;
shapes = (
{
closed = 1;
nodes = (
(943,841,l),
(943,807,ls),
(943,756,o),
(886,722,o),
(828,722,qs),
(775,722,o),
(676,729,o),
(616,729,qs),
(569,729,o),
(512,705,o),
(502,672,q),
(498,672,l),
(488,705,o),
(432,729,o),
(384,729,qs),
(323,729,o),
(226,722,o),
(172,722,qs),
(114,722,o),
(57,756,o),
(57,807,qs),
(57,841,l),
(26,841,l),
(26,804,ls),
(26,744,o),
(85,683,o),
(167,683,qs),
(208,683,o),
(283,687,o),
(357,692,o),
(396,692,qs),
(417,692,o),
(457,677,o),
(483,637,o),
(483,598,q),
(517,598,l),
(517,637,o),
(543,677,o),
(583,692,o),
(604,692,qs),
(643,692,o),
(716,687,o),
(792,683,o),
(833,683,qs),
(916,683,o),
(974,744,o),
(974,804,qs),
(974,841,l)
);
}
);
vertWidth = 1000;
width = 1000;
}
);
note = uniFE38;
unicode = 65080;
},
{
glyphname = bracketleft.full.vert;
lastChange = "2023-08-27 12:31:07 +0000";
layers = (
{
layerId = m01;
shapes = (
{
closed = 1;
nodes = (
(39,-81,l),
(70,-81,l),
(70,132,l),
(930,132,l),
(930,-81,l),
(961,-81,l),
(961,170,l),
(39,170,l)
);
}
);
vertWidth = 1000;
width = 1000;
}
);
note = uniFE47;
unicode = 65095;
},
{
glyphname = bracketright.full.vert;
lastChange = "2023-08-27 12:31:07 +0000";
layers = (
{
layerId = m01;
shapes = (
{
closed = 1;
nodes = (
(39,841,l),
(70,841,l),
(70,628,l),
(930,628,l),
(930,841,l),
(961,841,l),
(961,590,l),
(39,590,l)
);
}
);
vertWidth = 1000;
width = 1000;
}
);
note = uniFE48;
unicode = 65096;
},
{
glyphname = parenleft.full.vert;
lastChange = "2023-08-27 12:31:07 +0000";
layers = (
{
layerId = m01;
shapes = (
{
closed = 1;
nodes = (
(245,114,o),
(95,24,o),
(28,-41,q),
(49,-73,l),
(114,-10,o),
(259,76,o),
(417,119,o),
(500,119,qs),
(584,119,o),
(741,76,o),
(887,-10,o),
(951,-73,q),
(972,-41,l),
(905,24,o),
(755,114,o),
(591,160,o),
(500,160,qs),
(410,160,o)
);
}
);
vertWidth = 1000;
width = 1000;
}
);
note = uniFE35;
unicode = 65077;
},
{
glyphname = parenright.full.vert;
lastChange = "2023-08-27 12:31:07 +0000";
layers = (
{
layerId = m01;
shapes = (
{
closed = 1;
nodes = (
(755,646,o),
(905,736,o),
(972,801,q),
(951,833,l),
(887,770,o),
(741,684,o),
(584,641,o),
(500,641,qs),
(417,641,o),
(259,684,o),
(114,770,o),
(49,833,q),
(28,801,l),
(95,736,o),
(245,646,o),
(410,600,o),
(500,600,qs),
(591,600,o)
);
}
